<mxfile host="app.diagrams.net" agent="Mozilla/5.0 (Windows NT 10.0; Win64; x64) AppleWebKit/537.36 (KHTML, like Gecko) Chrome/135.0.0.0 Safari/537.36" version="26.0.10">
  <diagram name="Page-1" id="IGptmj-LGQ7H7Beism4Y">
    <mxGraphModel dx="926" dy="493" grid="1" gridSize="10" guides="1" tooltips="1" connect="1" arrows="1" fold="1" page="1" pageScale="1" pageWidth="850" pageHeight="1100" math="0" shadow="0">
      <root>
        <mxCell id="0" />
        <mxCell id="1" parent="0" />
        <mxCell id="g4U-ysgcYBglpTCRYyKT-3" value="&lt;div&gt;&lt;br&gt;&lt;/div&gt;" style="rounded=0;whiteSpace=wrap;html=1;fontSize=14;" vertex="1" parent="1">
          <mxGeometry x="80" y="140" width="710" height="260" as="geometry" />
        </mxCell>
        <mxCell id="g4U-ysgcYBglpTCRYyKT-2" value="coingeko api" style="shape=image;imageAspect=0;aspect=fixed;verticalLabelPosition=bottom;verticalAlign=top;image=https://encrypted-tbn0.gstatic.com/images?q=tbn:ANd9GcTcOm1FGBWRuCuB3RP-Kl2bt-hSPfL2OLu6yS1vj1AcLa0RyyTtX6ga7OEj5enr4SoCEOg&amp;usqp=CAU;fontSize=18;strokeWidth=2;" vertex="1" parent="1">
          <mxGeometry x="100" y="200" width="130" height="130" as="geometry" />
        </mxCell>
        <mxCell id="g4U-ysgcYBglpTCRYyKT-4" value="" style="endArrow=classic;html=1;rounded=0;fontSize=30;fontStyle=1" edge="1" parent="1">
          <mxGeometry width="50" height="50" relative="1" as="geometry">
            <mxPoint x="260" y="280" as="sourcePoint" />
            <mxPoint x="330" y="280" as="targetPoint" />
          </mxGeometry>
        </mxCell>
        <mxCell id="g4U-ysgcYBglpTCRYyKT-7" value="&lt;span style=&quot;font-size: 16px;&quot;&gt;extract&lt;/span&gt;" style="edgeLabel;html=1;align=center;verticalAlign=middle;resizable=0;points=[];" vertex="1" connectable="0" parent="g4U-ysgcYBglpTCRYyKT-4">
          <mxGeometry x="-0.2286" y="5" relative="1" as="geometry">
            <mxPoint x="3" y="-9" as="offset" />
          </mxGeometry>
        </mxCell>
        <mxCell id="g4U-ysgcYBglpTCRYyKT-6" value="vs code" style="shape=image;imageAspect=0;aspect=fixed;verticalLabelPosition=bottom;verticalAlign=top;image=data:image/jpeg,/9j/4AAQSkZJRgABAQAAAQABAAD/2wCEAAkGBxIPEBAPDRASFg8QFRYXFhEWDQ8VFhIYFRgWFhUWGBUYHSggGBsxGxgdIjEtJikrMTouGCAzRDMsPCstLysBCgoKDg0OGxAQGi8mICY1LS81LS0vLS0vLy0tLS0tLy8rLS0tLTUvMC0tLS0tLTYtLS0tKy0tLS0rLS0wLS8vL//AABEIAOEA4QMBEQACEQEDEQH/xAAbAAEAAQUBAAAAAAAAAAAAAAAABwIDBAUGAf/EAEAQAAIBAgMFBAcGBAUFAQAAAAABAgMEBhExBSFBUWESIjJxE1JygZGhsTRCc7LB0QcjM2JTguHw8RZDosLSFf/EABoBAQACAwEAAAAAAAAAAAAAAAADBQEEBgL/xAAyEQEAAgECBAQFAwQDAQEAAAAAAQIDBBESITFRBSJxsTNBkdHwMmGhgcHh8RRCYiMV/9oADAMBAAIRAxEAPwCcQAAAAAAAAAAAAAAAAAAAAeN5b3ogI3xb/EKSk6OzmuzHdK4yT7T4qmnuy6vXhwbttNoI24sv0+6k1niU78GH6/b89HK2+Kbjtfzq9V5vxKtUTXXXQsYxY45cMfSFRbJlnnx239Z+7sdmYsr0slV/mw/ueUl5S4+/PzNbN4fjvzryn+Po2dP4tmx8r+aP5+v3+rrtl7eoXOShPKf+HLdL3cJe7Mqs2ky4uscu8L3T67Dn5Vnn2nr/AJ/o2hrNwAAAAAAAAAAAAAAAAAAAAAAAAAFFWrGEXOclGMU25NpJJb223ojMRMztDEzERvKJ8bY1d12re1bjbaSlvUq37Q6cePIutJo4x+a/X2c/rfEJyeTH093FM31WtyZh6h1ts+5D2Y/RHuGtbrK6ZYbvZeKK9DKMn6SmvuzbzXlPX45mlm0OLJzjlP7fb/Sx0/iefDymeKP36/X77uw2ViOhcZRUuxUf/bnkm/J6S928qs2jy4ucxvHeF9pvEcOflE7T2n+3dtzUbwAAAAAAAAAAAAAAAAAAAAABZu7qFGEqtaSjTgs5Sb3JHqtZtO0dXm1orHFaeSH8Z4wnfSdKlnC1i90dHUa0lPpyX66Xml0kYo4p/V7Oc1uunNPDX9Pu5Y3FcpYZhbkYe4dda+CHsx+iPcNa3WVwy8gBgbjZeJK9vku126a+5Nt5eUtV810NTNosWXnttPeG/p/Ec+HlvvHaf7T/AL9HYbKxPQr5Rb9HUf3ZtJPylo/k+hU5tDlx845x+y+0/ieHNymdp7T/AGn8n9m7NNYAAAAAAAAAAAAAAAAAAAxdp7QpW1KVavNRpx483wSXF9D3jx2vbhrHN4yZK468Vp5IaxZimrtCfGFvB9yln/5T5y+mi4t32m01cMfv3czrNZbPbtXt93Pmy0gClh6WpmHqHXWv9OHsx+iPcNa3WV0ywAAAADoMMYglQnGlVk3Qk0t7/p56NP1ea9/noazSVyVm1Y83utPD9fbDaKXnes/x/j89ZDKF1AAAAAAAAAAAAAAAAA1+29sUrKk61xLJLcorxTfCMVxZLixWy24aos2amGvFZC+JcRVr+r26ryhHwUk+7BfrLm/otxfYNPXDXaOvdzOp1V89t56dmnJ2qAAKWGVuZh7h11r/AE4ezH6Ikhq26yuBgAAAABgbX/qGv6z+LNb/AIePssP/ANHL3Sec26wAAAAAAAAAAAAABqMSYho2FL0lZ5zln2KSfeqP9FzfDzyTnwYLZrbV+rX1Gppgrvb6IW27tqre1XWry36RivDBcoovsOGuKvDVzOo1F81uKzXEqAAAAPGGVqZiXuHXWvgh7MfoiSOjVt1ldMsAAAAAAUhlMxyLuwDW3e37WjJwq3FKM1uce2m155ae8mpp8t43rWdmvfVYaTw2vG/qzre4hUip0pxlB6SjJST96I7Vms7TGyatq2jes7wuHl6AAAAAAAANBizFFLZ9PflKvNdylnvf90uUfr9NnT6a2af27tXVaumCvPr2QxtTaVW6qyrXE3KcvhFcIxXBF9jx1x14auZzZbZbcVpYh7RgAAAApYZW5nmXqHW2vgh7MfoiWOjVt1ldMsAAAAAAUhlM5yLu0fYyxp4raxl0nXT+MYP9fhzLfR6D/vkj+n3UPiHie2+PDPrP2R8XDn202Dt6tZT7VGXdfipvwz81wfVf6EGfT0zRtb6trS6zJp7b16dkr4exDRvoZ0nlUS71JtdqPXrHqvloc/qNNfDO1und1Wl1mPUV3r17Nua7aAAAAAA5fGWL4WEXTp5TupLdDhDPSU8vktX01NvS6Sc07z0/OjS1esrgjaOdu33Q5eXc61SVWtNyqTecpPV/suhfVrFY4axyc1e9r2m1p3lZMvIAAAAPGB4wyqtbSpXnGlRhKdSbyUYrNv8AZdTxe0Vje0pcdLXtw1jm6tUZU/5c/HT7st+e+Pde/jvRLSYmsTDUyV2vMT8pl6enkAAAAACkyN7jrFspynZ2zapxbjUmnvm1ulBco8Hz8tarQ6OIiMl+vyhc+J+ITMzhx9PnPf8Ab86+jhy1UYAAuW1zOlONSlJxnF5qSeTR5tWLRw2jk90vbHaLVnaYSZhTG8Ljs0bvKFfRT0hU5ezL5P5FJqtBOPzY+cfzDpdF4nXLtTJyt/EuyK1bAAABxmN8bRs07e1aldPWW5xo9XznyXvfJ7+k0c5PNbp7q7W66MMcNP1eyI61aU5SnUk5Tk23JtttvVt8S6iIiNoc9a02neeqgy8gAAAAAANth3Dle/n2aEcoJ9+rLwQ/eXRfJbyDPqKYY83Xs29Npb555dO6Y8N4aobPh2aMc6kl36ssu3P9o9F83vKPPqL5Z3t9HRYNPTDXav1R3tT+vX/FqfnkdHh+HX0j2chn+Lf1t7yxiREAAAAAB4ZGqvaUoVakKnjjOSl5ptP5nmkxasTHRnLW1bzFuu6wekYAAAAOywrjedv2aN32p0NFPWdNf+0fn57kVuq0EX82PlP8SudF4pbH5MvOO/zj7pMtbmFWEalKSlCSzUk80yktWaztaObo6XreOKs7wunl6R/jrHSo9q1sZZ1tJ1lvVPnGPOfN8PPSy0mi4vPfp27qrW6/g3pj69+3+UWyk2228297bebberbLhRTMzO8vAwAAAAAAA7XB+A6l12a932qdvqo6Tqrp6seur4a5mhqdbFPLTnPss9J4dbJtfJyjt85SvZWlOhCNKjCMKcFkoxWSX+pTWtNp3tPNfUpWkcNY2hfPL0iLan2iv+LU/PI6rD8OvpHs4nP8W/rb3likiIAAAAADwyO7xnhBXede3yVylvWiqpcHyllo/c+aoNHrZxeS/wCn2dP4h4dGeOOn6vdFdanKEnCcXGUXk4tNNNapovomJjeHL2rNZ2tHNSZYAAAABtsPYhrWM86Tzpt96k2+zLr/AGy6r56GvqNNTNHm6923pNZk08+Xp2bjGP8AEKVWnGjZKdNVI/zKryUlnrCDWnn9Cvw6Dgtvk59lvn8TjJTbF/VHkWWSqmFaYeXuZlh6AAAALltQnVnGnSi5Tm8oxim235GLWisbz0eqUteeGsc0qYPwBCh2a98ozr6xpawpvr68vkuu5lPqddN/LTlHuvtJ4fXHtbJzn+Id2VyzAAEQ7U+0V/xan55HVYfh19I9nE5/i39be8sYkRAAAAAAeGWU0HIO6c1i7CkL2LqU8oXMVunwnlpGf78Pkbuk1lsM7Tzr+dFfrtBXURvHK3f7olu7adGcqVaLjUg8nF6r90dBS9b14q9HK5MdsdpraNphaPbwAAAACmUU1k9DHKWYmY5wwq9s47474/NEVq7dGzTJFuU9VlSPKSYVpmXnZ6mZYegANrh/YFe/qejt47l4qjzUILq+fRbyHNnpijeyfT6a+a21fqmPDGF6Gz4ZU12q0llOtJLtS6L1Y9F011KPPqb5p59OzotPpaYI2r17t4a7ZAAACIdqfaLj8Wp+eR1eH4dfSPZxOf4t/W3vLFJEYAAAAAHhkTSce7oA0eKMNU7+G/KNeK7lXLT+2XOP0+u1ptVbBP7dmnrNHTUV58p+Uog2ns+pbVJUa8ezOPwa4ST4o6LHlrkrxVnk5TNhvhvwXjmxT2iAAAAAAxri1z3w15cGeLU7JqZduUsPPLc9SNP1VpmWNnuYeXZYPwNVvOzWuM6drqnpOr7Keker92eq0tTra4/LXnPssdJ4fbJ5r8q+6W9n2NO3pxo28FCnHSK+rerfV7ylve154rTzX1KVpXhrG0Mk8vYAAAAIg2p9ouPxan55HV4fh19I9nE5/i39be8sYkRgAAAAAUmRNRx7ugABqsQ7BpX1PsVVlOOfYqJd6D/Vc1+uTWxp9RfDbev0a2q0tNRTht/SeyHtt7Iq2dV0q8cn92S8M1zizosOemavFVymp018F+G3+2vJmuAAAAABbrUVPXXmebViXul5qxIW03ONOEZSnJ5RjFNuT5JLUgt5Odm3T/6cqpTwb/DyNLs19opSq6xobnCHt8Jy6aefCp1Oum3lx9O670vh8U82TnPZIRXLMAAAAAABEG1ftFx+LU/PI6vD8OvpHs4rP8W/rb3likiIAAAAADwyJqOPd0AAMHbO1qNnSlXuZ9mC3Jaym+EYri/+dCTHitktw1R5ctcVeK0oQxRiqtf1vST7tKGfo6Ke6KfF85dS90+CMEcurndXqJ1E8+nyYVGqpLNe9cjerbdWWpNZ5rhl5AAAAAAv2F7Ut6katCbjUjpJZfBp7mjxkx1yV4bRvCTFlvitxUnaUq4UxnTvMqVbKnc8vu1PYb49H8yh1Whti81edfb1dNo/EaZ/Lblb39HVGgsQAAAAAAEQbV+0XH4tT88jq8Pw6+kezis/xb+tveWKSIgAAAAAKTIms493QBqsRbeo2FJ1a73vdCmvFUfJL6vgTYcNsttqoc+emGvFZCOItvVr+q6td7lmoU0+7TXJdeb4/BK+w4K4q7Vc5qNRbNbe30alokQqYycXmtRHJmYiY2ln0K6muvFE1bbtW9Jqunp4AAAAAA9TA7vCePHDs0b9uUNI197lH2/WXXXz4VOq8OifNi+n2Xmi8UmNqZvr90kUqsZxU4SUoyWakmmmno01qimmJidpX0TExvCswyAAAACH9q/aLj8Wp+eR1mH4dfSPZxWf4t/W3vLFJEQAAAAAHhkTWcc7posVYnpbOp9qp3q0l3KKe+XV+rHr9TY0+ntmttHTu19Rqa4K7z17IT2xtareVZV7iXam9FpGC4RiuC/53veX2PFXHXhq5vNmtltxWlgntE8YZUtGGVO9PNaowzynlLOt7jtbn4uXPyJq23a18fD6Lx7RgAAAAAAN/hjFVaxl2V36DfepN7vOL+6/k/mtTU6OmaN+k9/u39Hrr6edute32S1sbbFG8p+lt55rjF7pQfKS4P5HP5sN8VuG0OmwZ6Zq8VJZ5EmAAACHtq/aLj8ar+eR1mH4dfSPZxWf4t/W3vLFJEQAAAAAAyJFxli6ns+HZjlO6mu5Tz3RXrzy0j01fxa5jTaW2ad/k6/VauuCO89kLbQvqlxUlWrzcqk3vk/kkuC6IvaUrSvDWOTncmS2S3FaebHPaMAGB4wypaMMs3Yuxq97VVK1g5T1ctIwXrSlwXz5ZkWXLXHHFaU+HDfLPDWHXYjwTWs6UasZelgor0klDJwfF5er1PGl19cs8NuU/L9/8vWs8Nthrx05x8/2/wAOWLBVgAAAAAAMrZm0atrUVW3m4zXwkuUlxRHlxVyV4bQlw5r4bcVJSvhXGFK9Sp1Mqdz6mfdnzcG9fLXzyzKDVaK2HnHOv51dNo9fTPG08rdvs6c0m+AAIe2r9ouPxqv55HWYfh19I9nFZ/i39be8sUkRAAAAAAeGRz21r2VxXq1qmfbqTlJ58N+6PuWS9xqY6RSkVj5N7Neb3m0sQkRgAAAA6jCOC61+1UlnTtc99VrfPLVU09eWei65ZGnqNXXFyjnP51b2l0Vs3OeUfnRMWx9k0bOkqNtTUYLXnJ+tJ6yZSZMlsluK0r7Hirjrw1hmtZ7nozwkRpjXBPo+1c2Mc6es6KW+HOUFxj04eWl3o9fxeTJ17/dQa/w3bfJi6fOPs4LMtVI9AAAAAAAjLJpptNb01qmuIZiZid4SDhPH2XZobQea0jccVyVTn5/Hiyo1Xh3/AGxfT7LzReKdKZvr9/z1SLCaklKLTi1mmnmmno0+JTzG3KV7E784VGBDu1ftFx+NV/PI6zD8OvpHs4vP8W/rb3likiIAAAAAAZF7+IOE52lWd1SXatasnJtL+jKT3xl/bm9z93LOp0epi9YpPWP5XWu0k47Tkr0n+HGm8rgAB7CLbSim23kklm23okuLEzszETM7QkrB38OvDX2lHrG2z+Dqf/Px4oq9Tr/+uP6/ZcaXw7bzZfp90lwiopKKSSWSSWSSWiSKpbqgAACP8bYJ7faubGPf1nQS8XOUF63NceG/c7bRa/byZJ9J+6l1/h3F/wDTFHP5x9kbMulABgAAAAAAB0OFsXVbFqDznbN76Te+Oerg+D45aPpqaWq0dM3Ppbv91jo9ffB5Z517fZLeyNrUbumqtvNSjxWkov1ZLgygy4r4rcNodJizUy14qTvCKtq/aLj8ar+eR1GH4VfSPZyGf4t/WfeWKSogAAAAAPAJrq01OLjNJxkmnFpNNPc009UcfEzE7w7iYiY2lEOO8DO17VzZpyttZQ3uVHr1h9OPMudJrOPyX6+6k1mh4PPj6duzhiwVjN2Rsqtd1VRtoOU3ryivWk9IojyZa468VpSYsN8tuGsJiwhgqjYJVJ5VLrLfUa3Qz1VNPTlnq9+meRSajV2y8o5R+dV/ptHTDG8857/Z1RqNwAAAAADisa4LVz2ri0SVxrKG5Kr+0/rx5llo9dOPyX6e3+FVrvD4y+fH+r3/AMosqQcW4yTUotpxaaaa3NNPRl9E7xvDnJrMTtKkMAAAAAAUsMwydlbWrWdRVrabjJarWM16so8V/vcQZsVMteG0NnBnvhtxUluatw6spVWknVbm0tE5vtNL4k1K8NYr2iEGS3Febd5mfrKg9PAAAAAAACbTjncjQHL3n8P9n1ZufoXBve1CpKMX/lW6PuyNuutzVjbdqW0OC078LdbJ2RQtIejtaUYR1eWbcnzlJ75PzZBky3yTvad0+PFTHG1Y2ZxGkAAAAAAAAOVxlhCF6nVo5RuktdFVS0UuvJ+7y39HrZwzw2519vRX63QVzxxV5W9/VEdzbzpTlTqxcZweUotZNM6CtotHFXo5m9LUtNbRtK0engAAABgeSMMwtTPMpIdBQ8EfZX0PcdEc9VwywAAAAAB4ZE3HGu5AAAAAAAAAAAAAAc9i3CtO/hmsoXEF3KmWv9s+cfmvinuaXV2wT3jt9mlrNFXUV7W7/dD20LGpb1JUa8HGpHVP5NPiup0WPJXJXirPJzGXFbFbhvHNjHtGAAAFLMMwtTPEvcOhoeCPsr6EkdEc9VwywAAAAAB4GU3HGu4AAAAAAAAAAAAAAANNibDtK/p9mp3akfBVS3wf6x5r6amzptTfBbeOnzhrarS01FdrdflKGtsbJq2dV0biOUlo1vjNcJRfFf73HR4c1MteKsuWz4L4bcN4YJKhABgeMMrUzxL3DoKHgj7K+hJHRHPVcMsAAAAA8zAzv/yqvqMg/wCRj7tn/iZeyYTlHYAAAAAAAAAAAAAAAADW7e2JSvaTpV49YzXig+aZNgz3w24qoc+CmavDdDOIdhVbGr6Oss4vNwqJd2oua5PmuHwb6TT6imavFX6dnLanTXwX4bf0nu1RO1gDxmHpameJe4dBQ8EfZX0JI6I56rhlgAAAAG5wzsKV5VWafoIPvz4PL7ifFv5Lfyz09XqowU/9T0+7c0WktqL/APmOs/2/OiU/Rx9VfBHNby6vaFZhkAAAAAAAAAAAAAAAAAMPa2zKV3SlRuI9qEvjF8JRfBkmLLbFbirKPLiplrw3jkhrFOGquz6mU+9Rk+5VS3P+18pHR6XVVz15dezmNXo7ae3eO7Rm001LMMrUzxL3DoaHgj7K+hJHRHPVcMsAADO2XsevdPKhTbjxm90F5yf6ZsgzajHh/XP9PmnwaXLm/RH9fl9XabIwPSp5Supekn6izUF+svfu6FRn8TvbljjaP5/Pzdd6fwnHXnknint8v8/nJ1VKlGEVGEVGK3KKSSS6JaFZNptO8rWtYrG0RyVmGQAAAAAAAAAAAAAAAAAAALF9Z069OVKvBSpzWTi/97n1R7pe1LRas7S8XpW9ZraN4lDuMMJ1LCXbhnO2k+7Uy3xz0jPLj10fyOh0msrnjaeVvzo5vWaG2CeKOdfzq5lm5LQhakeZe4dDQ8MfZX0PcdEc9VZlhstk7CuLr+jT7n+JLuwXv4+5M182qxYf1Tz7R1/PVs4NJmz/AKI5d55R+em7ttkYKo0spXD9LPk1lTX+X73vz8inz+J5L8qeWP5+v2Xen8KxU55PNP8AH0+7p4RUUlFJJaJLJL3FdMzPOVnERHKHphkAAAAAAAAAAAAAAAAAAAAAAAW69GNSMoVIqUJLJxaTTT1TRmtprO8MTEWjaUT4uwJVt5OrZxlUt3v7CzlOl0y1lHk9eembvtLr65I4ck7T/Eue1fh1sc8WON47fOHJUrJt9/upa5vf5ZFjwzKrm8Q6/ZGHLi5ydOn2af8AiTzjH3cZe5Gvn1mLD1nee0NrBoc2bnEbR3nl/t22yMG29HKVX+bUXGS7i8oafHMp8/iOXJyr5Y/br9V1p/DMOPnbzT+/T6ffd0aWW5aFesnoAAAAAAAAAAAAAAAAAAAAAAAAAAAAGtuP68fcbFfhoLfrbI104AAAAAAAB//Z;fontSize=18;" vertex="1" parent="1">
          <mxGeometry x="350" y="200" width="140" height="140" as="geometry" />
        </mxCell>
        <mxCell id="g4U-ysgcYBglpTCRYyKT-9" value="" style="endArrow=classic;html=1;rounded=0;fontSize=30;fontStyle=1" edge="1" parent="1">
          <mxGeometry width="50" height="50" relative="1" as="geometry">
            <mxPoint x="530" y="280" as="sourcePoint" />
            <mxPoint x="600" y="280" as="targetPoint" />
          </mxGeometry>
        </mxCell>
        <mxCell id="g4U-ysgcYBglpTCRYyKT-10" value="&lt;span style=&quot;font-size: 16px;&quot;&gt;load&lt;/span&gt;" style="edgeLabel;html=1;align=center;verticalAlign=middle;resizable=0;points=[];" vertex="1" connectable="0" parent="g4U-ysgcYBglpTCRYyKT-9">
          <mxGeometry x="-0.2286" y="5" relative="1" as="geometry">
            <mxPoint x="3" y="-9" as="offset" />
          </mxGeometry>
        </mxCell>
        <mxCell id="g4U-ysgcYBglpTCRYyKT-11" value="snowflake" style="shape=image;imageAspect=0;aspect=fixed;verticalLabelPosition=bottom;verticalAlign=top;image=https://encrypted-tbn0.gstatic.com/images?q=tbn:ANd9GcSE7pFMzY0U6vzKswSdRHw8ctpFNsyIVOGPYA&amp;s;fontSize=18;" vertex="1" parent="1">
          <mxGeometry x="620" y="200" width="140" height="140" as="geometry" />
        </mxCell>
        <mxCell id="g4U-ysgcYBglpTCRYyKT-12" value="&lt;font style=&quot;font-size: 27px;&quot;&gt;crypto coin ETL pipline&lt;/font&gt;" style="rounded=1;whiteSpace=wrap;html=1;fillColor=#f5f5f5;fontColor=#333333;strokeColor=#666666;" vertex="1" parent="1">
          <mxGeometry x="80" y="140" width="710" height="50" as="geometry" />
        </mxCell>
      </root>
    </mxGraphModel>
  </diagram>
</mxfile>
